#Comment line ignore any data following # character 
#Hierarchical Translation and Rotation (.htr) file 
[Header]	
#Header keywords are followed by a single value 
FileType HTR		#Single word string
DataType HTRS		#Translation followed by rotation and scale data
FileVersion 1		#integer
NumSegments 64		#integer
NumFrames 3		#integer
DataFrameRate 30		#integer, data frame rate in this file
EulerRotationOrder ZYX
CalibrationUnits mm
RotationUnits Degrees
GlobalAxisofGravity Y
BoneLengthAxis Y
ScaleFactor 1.00
[SegmentNames&Hierarchy]
#CHILD	PARENT
Pinger_Root GLOBAL
Pelvis Pinger_Root
L_Hip Pelvis
R_Hip Pelvis
Rear_Leg01 Pelvis
Spine1 Pelvis
L_Leg01 L_Hip
L_Leg02 L_Leg01
L_Leg03 L_Leg02
L_Foot L_Leg03
L_Toe1_01 L_Foot
L_Toe2_01 L_Foot
L_Toe3_01 L_Foot
planeAlignerLeft L_Foot
L_Toe1_02 L_Toe1_01
L_Toe1_03 L_Toe1_02
L_Toe2_02 L_Toe2_01
L_Toe2_03 L_Toe2_02
L_Toe3_02 L_Toe3_01
L_Toe3_03 L_Toe3_02
planeLockWeightLeft planeAlignerLeft
R_Leg01 R_Hip
R_Leg02 R_Leg01
R_Leg03 R_Leg02
R_Foot R_Leg03
planeAlignerRight R_Foot
R_Toe1_01 R_Foot
R_Toe2_01 R_Foot
R_Toe3_01 R_Foot
planeLockWeightRight planeAlignerRight
R_Toe1_02 R_Toe1_01
R_Toe1_03 R_Toe1_02
R_Toe2_02 R_Toe2_01
R_Toe2_03 R_Toe2_02
R_Toe3_02 R_Toe3_01
R_Toe3_03 R_Toe3_02
Rear_Leg02 Rear_Leg01
Rear_Leg03 Rear_Leg02
Rear_Leg04 Rear_Leg03
Rear_Foot Rear_Leg04
planeAlignerCenter Rear_Foot
Rear_Toe1_01 Rear_Foot
Rear_Toe2_01 Rear_Foot
Rear_Toe3_01 Rear_Foot
planeLockWeightCenter planeAlignerCenter
Rear_Toe1_02 Rear_Toe1_01
Rear_Toe1_03 Rear_Toe1_02
Rear_Toe2_02 Rear_Toe2_01
Rear_Toe2_03 Rear_Toe2_02
Rear_Toe3_02 Rear_Toe3_01
Rear_Toe3_03 Rear_Toe3_02
Back_Bone Spine1
Head Spine1
Motor_Bone Back_Bone
Ping_Mechanism Back_Bone
BN_LookIK Head
bottomMouth Head
L_Mouth01 Head
L_mouthFront Head
mouthGun Head
R_Mouth01 Head
R_mouthFront Head
TopMouth Head
weapon_bone Head
[BasePosition]
#SegmentName Tx, Ty, Tz, Rx, Ry, Rz, BoneLength
Pinger_Root 0.000000 0.000000 0.000000 -90.000000 0.000000 0.000000 10.000000 
Pelvis 0.000000 0.000000 0.000000 0.000000 0.000000 0.000000 10.000000 
L_Hip 0.000000 0.000000 0.000000 0.000000 0.000000 0.000000 10.000000 
R_Hip 0.000000 0.000000 0.000000 0.000000 0.000000 0.000000 10.000000 
Rear_Leg01 0.000000 0.000000 0.000000 0.000000 0.000000 0.000000 10.000000 
Spine1 0.000000 0.000000 0.000000 0.000000 0.000000 0.000000 10.000000 
L_Leg01 0.000000 0.000000 0.000000 0.000000 0.000000 0.000000 10.000000 
L_Leg02 0.000000 0.000000 0.000000 0.000000 0.000000 0.000000 10.000000 
L_Leg03 0.000000 0.000000 0.000000 0.000000 0.000000 0.000000 10.000000 
L_Foot 0.000000 0.000000 0.000000 0.000000 0.000000 0.000000 10.000000 
L_Toe1_01 0.000000 0.000000 0.000000 0.000000 0.000000 0.000000 10.000000 
L_Toe2_01 0.000000 0.000000 0.000000 0.000000 0.000000 0.000000 10.000000 
L_Toe3_01 0.000000 0.000000 0.000000 0.000000 0.000000 0.000000 10.000000 
planeAlignerLeft 0.000000 0.000000 0.000000 0.000000 0.000000 0.000000 10.000000 
L_Toe1_02 0.000000 0.000000 0.000000 0.000000 0.000000 0.000000 10.000000 
L_Toe1_03 0.000000 0.000000 0.000000 0.000000 0.000000 0.000000 10.000000 
L_Toe2_02 0.000000 0.000000 0.000000 0.000000 0.000000 0.000000 10.000000 
L_Toe2_03 0.000000 0.000000 0.000000 0.000000 0.000000 0.000000 10.000000 
L_Toe3_02 0.000000 0.000000 0.000000 0.000000 0.000000 0.000000 10.000000 
L_Toe3_03 0.000000 0.000000 0.000000 0.000000 0.000000 0.000000 10.000000 
planeLockWeightLeft 0.000000 0.000000 0.000000 0.000000 0.000000 0.000000 10.000000 
R_Leg01 0.000000 0.000000 0.000000 0.000000 0.000000 0.000000 10.000000 
R_Leg02 0.000000 0.000000 0.000000 0.000000 0.000000 0.000000 10.000000 
R_Leg03 0.000000 0.000000 0.000000 0.000000 0.000000 0.000000 10.000000 
R_Foot 0.000000 0.000000 0.000000 0.000000 0.000000 0.000000 10.000000 
planeAlignerRight 0.000000 0.000000 0.000000 0.000000 0.000000 0.000000 10.000000 
R_Toe1_01 0.000000 0.000000 0.000000 0.000000 0.000000 0.000000 10.000000 
R_Toe2_01 0.000000 0.000000 0.000000 0.000000 0.000000 0.000000 10.000000 
R_Toe3_01 0.000000 0.000000 0.000000 0.000000 0.000000 0.000000 10.000000 
planeLockWeightRight 0.000000 0.000000 0.000000 0.000000 0.000000 0.000000 10.000000 
R_Toe1_02 0.000000 0.000000 0.000000 0.000000 0.000000 0.000000 10.000000 
R_Toe1_03 0.000000 0.000000 0.000000 0.000000 0.000000 0.000000 10.000000 
R_Toe2_02 0.000000 0.000000 0.000000 0.000000 0.000000 0.000000 10.000000 
R_Toe2_03 0.000000 0.000000 0.000000 0.000000 0.000000 0.000000 10.000000 
R_Toe3_02 0.000000 0.000000 0.000000 0.000000 0.000000 0.000000 10.000000 
R_Toe3_03 0.000000 0.000000 0.000000 0.000000 0.000000 0.000000 10.000000 
Rear_Leg02 0.000000 0.000000 0.000000 0.000000 0.000000 0.000000 10.000000 
Rear_Leg03 0.000000 0.000000 0.000000 0.000000 0.000000 0.000000 10.000000 
Rear_Leg04 0.000000 0.000000 0.000000 0.000000 0.000000 0.000000 10.000000 
Rear_Foot 0.000000 0.000000 0.000000 0.000000 0.000000 0.000000 10.000000 
planeAlignerCenter 0.000000 0.000000 0.000000 0.000000 0.000000 0.000000 10.000000 
Rear_Toe1_01 0.000000 0.000000 0.000000 0.000000 0.000000 0.000000 10.000000 
Rear_Toe2_01 0.000000 0.000000 0.000000 0.000000 0.000000 0.000000 10.000000 
Rear_Toe3_01 0.000000 0.000000 0.000000 0.000000 0.000000 0.000000 10.000000 
planeLockWeightCenter 0.000000 0.000000 0.000000 0.000000 0.000000 0.000000 10.000000 
Rear_Toe1_02 0.000000 0.000000 0.000000 0.000000 0.000000 0.000000 10.000000 
Rear_Toe1_03 0.000000 0.000000 0.000000 0.000000 0.000000 0.000000 10.000000 
Rear_Toe2_02 0.000000 0.000000 0.000000 0.000000 0.000000 0.000000 10.000000 
Rear_Toe2_03 0.000000 0.000000 0.000000 0.000000 0.000000 0.000000 10.000000 
Rear_Toe3_02 0.000000 0.000000 0.000000 0.000000 0.000000 0.000000 10.000000 
Rear_Toe3_03 0.000000 0.000000 0.000000 0.000000 0.000000 0.000000 10.000000 
Back_Bone 0.000000 0.000000 0.000000 0.000000 0.000000 0.000000 10.000000 
Head 0.000000 0.000000 0.000000 0.000000 0.000000 0.000000 10.000000 
Motor_Bone 0.000000 0.000000 0.000000 0.000000 0.000000 0.000000 10.000000 
Ping_Mechanism 0.000000 0.000000 0.000000 0.000000 0.000000 0.000000 10.000000 
BN_LookIK 0.000000 0.000000 0.000000 0.000000 0.000000 0.000000 10.000000 
bottomMouth 0.000000 0.000000 0.000000 0.000000 0.000000 0.000000 10.000000 
L_Mouth01 0.000000 0.000000 0.000000 0.000000 0.000000 0.000000 10.000000 
L_mouthFront 0.000000 0.000000 0.000000 0.000000 0.000000 0.000000 10.000000 
mouthGun 0.000000 0.000000 0.000000 0.000000 0.000000 0.000000 10.000000 
R_Mouth01 0.000000 0.000000 0.000000 0.000000 0.000000 0.000000 10.000000 
R_mouthFront 0.000000 0.000000 0.000000 0.000000 0.000000 0.000000 10.000000 
TopMouth 0.000000 0.000000 0.000000 0.000000 0.000000 0.000000 10.000000 
weapon_bone 0.000000 0.000000 0.000000 0.000000 0.000000 0.000000 10.000000 
#Beginning of Data. Separated by tabs
#Fr	Tx	Ty	Tz	Rx	Ry	Rz	SF
[Pinger_Root]
50 0.000000 0.000000 0.000000 -0.000075 -0.000000 -0.000020 0.000000
51 0.000000 0.000000 0.000000 -0.000075 -0.000000 -0.000020 0.000000
52 0.000000 0.000000 0.000000 -0.000075 -0.000000 -0.000020 0.000000
[Pelvis]
50 86.478775 900.274719 4121.969238 -94.833084 -81.336281 87.184357 4220.024414
51 84.567696 901.321838 4138.288086 -95.223869 -81.982147 87.579933 4236.149414
52 82.697563 902.479614 4181.311035 -95.683121 -82.627380 88.043953 4278.395508
[L_Hip]
50 5.766392 125.831482 872.656799 160.158691 -45.484905 122.312202 881.701050
51 5.766392 125.831482 872.656799 160.158691 -45.484894 122.312202 881.701050
52 5.766392 125.831482 872.656799 160.158691 -45.484905 122.312202 881.701050
[R_Hip]
50 5.765438 125.836372 -872.654907 38.087841 49.812698 125.703735 881.699829
51 5.765438 125.836372 -872.654907 38.087841 49.812687 125.703735 881.699829
52 5.765438 125.836372 -872.654907 38.087830 49.812672 125.703735 881.699829
[Rear_Leg01]
50 -192.298416 -925.602966 -0.001907 169.934418 3.026422 -157.171738 945.367432
51 -192.298416 -925.602966 -0.001907 169.917740 2.981670 -156.874084 945.367432
52 -192.298416 -925.602966 -0.001907 169.896561 2.901464 -156.857437 945.367432
[Spine1]
50 290.604584 5.007505 0.000477 7.248988 -0.765299 15.772925 290.647736
51 290.604584 5.007505 0.000477 7.249959 -0.756670 16.389130 290.647736
52 290.604584 5.007505 0.000477 7.251019 -0.748051 17.005306 290.647736
[L_Leg01]
50 761.932007 -0.002384 -0.069261 22.162710 -12.669081 -10.566544 761.932068
51 761.932007 -0.002384 -0.069261 22.523499 -12.631241 -10.874721 761.932068
52 761.932007 -0.002384 -0.069261 22.713850 -12.906462 -10.993083 761.932068
[L_Leg02]
50 1441.140503 -0.000954 -0.000715 4.503161 0.503571 -128.417358 1441.140503
51 1441.140503 -0.000954 -0.000715 4.440896 0.465096 -128.645599 1441.140503
52 1441.140503 -0.000954 -0.000715 4.199560 0.345764 -128.512756 1441.140503
[L_Leg03]
50 1686.963989 -0.000715 -0.000954 -0.069968 0.036220 129.435776 1686.963989
51 1686.963989 -0.000715 -0.000954 -0.070098 0.035969 129.025208 1686.963989
52 1686.963989 -0.000715 -0.000954 -0.063863 0.032950 127.794754 1686.963989
[L_Foot]
50 3041.570068 -30.715107 11.297464 1.351837 12.797425 50.076172 3041.746094
51 3041.570068 -30.715107 11.297464 1.358559 12.782616 50.332397 3041.746094
52 3041.570068 -30.715107 11.297464 1.478083 12.827176 50.980316 3041.746094
[L_Toe1_01]
50 -188.216690 -224.732346 -21.137953 94.091293 -7.087830 -177.046082 293.899567
51 -188.216690 -224.732346 -21.137953 94.032806 -7.149945 -176.326797 293.899567
52 -188.216690 -224.732346 -21.137953 93.998329 -7.073911 -175.658875 293.899567
[L_Toe2_01]
50 200.746536 -219.926590 148.838394 -92.468796 -28.379799 -45.607525 332.896027
51 200.746536 -219.926590 148.838394 -92.153389 -28.229225 -46.472687 332.896027
52 200.746536 -219.926590 148.838394 -91.731064 -27.864414 -47.690636 332.896027
[L_Toe3_01]
50 188.832520 -219.859131 -191.078659 -98.442764 15.651785 -59.672699 347.140900
51 188.832520 -219.859131 -191.078659 -98.568756 15.357784 -60.646561 347.140900
52 188.832520 -219.859131 -191.078659 -98.772751 15.043946 -61.959049 347.140900
[planeAlignerLeft]
50 28.833006 -496.524872 106.314163 169.306686 -76.298271 89.968506 508.597076
51 28.162537 -508.599030 107.149956 169.306686 -76.298271 89.968506 520.525879
52 28.586426 -524.438354 106.615448 169.306686 -76.298271 89.968506 535.928772
[L_Toe1_02]
50 413.761139 0.000477 0.000000 0.000203 -25.410625 -0.000182 413.761139
51 413.761139 0.000477 0.000000 0.000203 -25.410625 -0.000182 413.761139
52 413.761139 0.000477 0.000000 0.000203 -25.410625 -0.000182 413.761139
[L_Toe1_03]
50 464.317322 0.000358 -0.000089 0.003875 54.741550 0.003875 464.317322
51 464.317322 0.000358 -0.000089 0.003849 54.491077 0.003849 464.317322
52 464.317322 0.000358 -0.000089 0.003876 54.752682 0.003876 464.317322
[L_Toe2_02]
50 342.235809 -0.000477 0.000238 0.001183 -75.497391 0.001183 342.235809
51 342.235809 -0.000477 0.000238 0.001183 -75.350609 0.001183 342.235809
52 342.235809 -0.000477 0.000238 0.001183 -75.203720 0.001183 342.235809
[L_Toe2_03]
50 420.210846 -0.000715 0.000000 -179.986649 85.638115 -179.983154 420.210846
51 420.210846 -0.000715 0.000000 -179.986023 85.813568 -179.982529 420.210846
52 420.210846 -0.000715 0.000000 -179.982651 86.551788 -179.979141 420.210846
[L_Toe3_02]
50 329.270111 0.000954 0.000000 0.001176 -83.011528 0.001176 329.270111
51 329.270111 0.000954 0.000000 0.001176 -82.830185 0.001176 329.270111
52 329.270111 0.000954 0.000000 0.001176 -82.648811 0.001176 329.270111
[L_Toe3_03]
50 439.137451 -0.001907 0.000954 179.990707 66.360367 179.997849 439.137451
51 439.137451 -0.001907 0.000954 179.990540 67.017479 179.997681 439.137451
52 439.137451 -0.001907 0.000954 179.990173 68.429047 179.997284 439.137451
[planeLockWeightLeft]
50 999.998718 0.097961 0.076027 -0.011826 -0.004376 0.005620 999.998779
51 999.998718 0.097961 0.076027 -0.011826 -0.004376 0.005620 999.998779
52 999.998718 0.097961 0.076027 -0.011826 -0.004376 0.005620 999.998779
[R_Leg01]
50 761.455627 -0.001907 -0.000358 122.033012 -11.229529 30.781679 761.455688
51 761.455627 -0.001907 -0.000358 121.752342 -11.036981 31.089279 761.455688
52 761.455627 -0.001907 -0.000358 121.566071 -11.295391 31.354708 761.455688
[R_Leg02]
50 1441.140625 0.000000 -0.000238 -2.047945 -0.669119 -127.175392 1441.140625
51 1441.140625 0.000000 -0.000238 -2.020420 -0.641404 -127.364067 1441.140625
52 1441.140625 0.000000 -0.000238 -1.924263 -0.554092 -127.196007 1441.140625
[R_Leg03]
50 1686.963989 0.000954 0.001431 0.104402 -0.063224 139.231995 1686.963989
51 1686.963989 0.000954 0.001431 0.104625 -0.062854 138.825470 1686.963989
52 1686.963989 0.000954 0.001431 0.098911 -0.058879 137.565475 1686.963989
[R_Foot]
50 3041.560059 -30.531288 -11.204481 0.820936 -24.381802 54.510033 3041.734131
51 3041.560059 -30.531288 -11.204481 0.816444 -24.383005 54.756058 3041.734131
52 3041.560059 -30.531288 -11.204481 0.540706 -24.421316 55.358990 3041.734131
[planeAlignerRight]
50 -131.781311 -477.288483 -318.616730 -36.577137 -71.339012 -64.343925 588.801514
51 -132.513733 -489.254791 -319.523407 -36.577137 -71.339012 -64.343925 599.187256
52 -132.035217 -505.082550 -318.932953 -36.577137 -71.339012 -64.343925 611.767822
[R_Toe1_01]
50 -188.383347 -224.864899 21.052242 76.950935 -0.329259 -178.539093 294.101532
51 -188.383347 -224.864899 21.052242 76.899544 -0.282675 -178.016144 294.101532
52 -188.383347 -224.864899 21.052242 76.861923 -0.336330 -177.187561 294.101532
[R_Toe2_01]
50 200.637817 -220.002121 -148.787384 -89.197624 35.557697 -53.115841 332.857574
51 200.637817 -220.002121 -148.787384 -89.589775 35.307072 -53.962448 332.857574
52 200.637817 -220.002121 -148.787384 -90.066200 34.819298 -55.078430 332.857574
[R_Toe3_01]
50 188.606735 -220.092957 191.126343 -73.466621 -10.148559 -67.371788 347.192566
51 188.606735 -220.092957 191.126343 -73.480309 -9.914614 -68.232994 347.192566
52 188.606735 -220.092957 191.126343 -73.422478 -9.655231 -69.413406 347.192566
[planeLockWeightRight]
50 999.999329 0.000000 0.076017 -0.011823 -0.004379 -0.000027 999.999329
51 999.999329 0.000000 0.076017 -0.011823 -0.004379 -0.000027 999.999329
52 999.999329 0.000000 0.076017 -0.011823 -0.004379 -0.000027 999.999329
[R_Toe1_02]
50 413.762085 0.000477 -0.000119 0.001398 -24.229347 0.001398 413.762085
51 413.762085 0.000477 -0.000119 0.001398 -24.220493 0.001398 413.762085
52 413.762085 0.000477 -0.000119 0.001398 -24.211643 0.001398 413.762085
[R_Toe1_03]
50 464.317810 0.000000 0.001088 0.007582 72.191742 0.007582 464.317810
51 464.317810 0.000000 0.001088 0.007716 72.501442 0.007716 464.317810
52 464.317810 0.000000 0.001088 0.007853 72.811157 0.007853 464.317810
[R_Toe2_02]
50 342.234741 -0.000954 0.000238 0.001189 -71.619453 0.001189 342.234741
51 342.234741 -0.000954 0.000238 0.001189 -71.509712 0.001189 342.234741
52 342.234741 -0.000954 0.000238 0.001190 -71.075172 0.001190 342.234741
[R_Toe2_03]
50 420.210846 0.000715 -0.000268 0.020677 83.492355 0.020677 420.210846
51 420.210846 0.000715 -0.000268 0.019869 83.227493 0.019869 420.210846
52 420.210846 0.000715 -0.000268 0.017655 82.376945 0.017655 420.210846
[R_Toe3_02]
50 329.270355 -0.000477 -0.000954 0.001179 -79.492622 0.001179 329.270355
51 329.270355 -0.000477 -0.000954 0.001179 -79.248451 0.001179 329.270355
52 329.270355 -0.000477 -0.000954 0.001179 -78.742096 0.001179 329.270355
[R_Toe3_03]
50 439.137939 0.000238 0.001431 -179.993240 82.252121 -179.989746 439.137939
51 439.137939 0.000238 0.001431 -179.992218 83.088631 -179.988708 439.137939
52 439.137939 0.000238 0.001431 -179.989090 84.798248 -179.985580 439.137939
[Rear_Leg02]
50 1162.777710 -0.029802 0.005960 0.988421 -2.828229 -123.301926 1162.777710
51 1162.777710 -0.029802 0.005960 0.995634 -2.821506 -124.042915 1162.777710
52 1162.777710 -0.029802 0.005960 0.958983 -2.832825 -123.913223 1162.777710
[Rear_Leg03]
50 607.192505 -0.013351 -0.073195 0.010541 -0.005004 67.142120 607.192505
51 607.192505 -0.013351 -0.073195 0.010539 -0.005009 67.195564 607.192505
52 607.192505 -0.013351 -0.073195 0.010550 -0.004985 66.940430 607.192505
[Rear_Leg04]
50 995.874512 -0.020504 -0.011921 -0.043856 -0.017280 64.053108 995.874573
51 995.874512 -0.020504 -0.011921 -0.043873 -0.017238 64.163979 995.874573
52 995.874512 -0.020504 -0.011921 -0.043793 -0.017441 63.633579 995.874573
[Rear_Foot]
50 3096.176270 -0.067472 -0.041425 -145.060287 85.583588 46.224792 3096.176270
51 3096.176270 -0.067472 -0.041425 -145.170502 85.586426 46.361633 3096.176270
52 3096.176270 -0.067472 -0.041425 -144.779221 85.619621 46.710861 3096.176270
[planeAlignerCenter]
50 1.039886 -19.956059 -681.169800 12.240773 -0.001473 179.998184 681.462830
51 1.038704 -20.751951 -693.484253 12.240772 -0.001473 179.998184 693.795471
52 1.038589 -20.283203 -709.343262 12.240772 -0.001473 179.998184 709.633972
[Rear_Toe1_01]
50 0.653352 83.966492 -371.173737 0.261003 34.704979 90.393562 380.553192
51 0.653352 83.966492 -371.173737 0.264509 35.431149 90.395088 380.553192
52 0.653352 83.966492 -371.173737 0.266164 36.501083 90.397614 380.553192
[Rear_Toe2_01]
50 178.200760 -294.826019 -362.060547 -7.875639 29.292997 -66.622780 499.765686
51 178.200760 -294.826019 -362.060547 -7.782295 30.031017 -66.551147 499.765686
52 178.200760 -294.826019 -362.060547 -7.650265 31.014961 -66.459892 499.765686
[Rear_Toe3_01]
50 -153.359680 -308.780914 -362.060852 3.634917 28.551872 -112.317680 499.952881
51 -153.359680 -308.780914 -362.060852 3.593738 29.319500 -112.327629 499.952881
52 -153.359680 -308.780914 -362.060852 3.527570 30.286684 -112.385269 499.952881
[planeLockWeightCenter]
50 1000.000000 0.000305 0.076256 -0.011814 -0.004373 -0.000015 1000.000000
51 1000.000000 0.000305 0.076256 -0.011814 -0.004373 -0.000015 1000.000000
52 1000.000000 0.000305 0.076256 -0.011814 -0.004373 -0.000015 1000.000000
[Rear_Toe1_02]
50 379.707825 0.194073 0.000477 0.001333 -33.388908 0.001333 379.707855
51 379.707825 0.194073 0.000477 0.001333 -33.375145 0.001333 379.707855
52 379.707825 0.194073 0.000477 0.001333 -33.361382 0.001333 379.707855
[Rear_Toe1_03]
50 500.129700 0.165701 0.000119 -0.004673 67.053093 -0.001105 500.129761
51 500.129700 0.165701 0.000119 -0.004625 66.644203 -0.001054 500.129761
52 500.129700 0.165701 0.000119 -0.004476 65.288177 -0.000896 500.129761
[Rear_Toe2_02]
50 340.494507 0.000238 -0.000954 0.001189 -71.509735 0.001189 340.494507
51 340.494507 0.000238 -0.000954 0.001189 -71.680656 0.001189 340.494507
52 340.494507 0.000238 -0.000954 0.001188 -71.851540 0.001188 340.494507
[Rear_Toe2_03]
50 433.103577 0.000000 0.000238 0.007677 72.412239 0.007677 433.103546
51 433.103577 0.000000 0.000238 0.007825 72.747040 0.007825 433.103546
52 433.103577 0.000000 0.000238 0.007978 73.081772 0.007978 433.103546
[Rear_Toe3_02]
50 340.494141 -0.000358 -0.000477 0.001194 -68.868179 0.001194 340.494171
51 340.494141 -0.000358 -0.000477 0.001193 -69.092522 0.001193 340.494171
52 340.494141 -0.000358 -0.000477 0.001193 -69.316849 0.001193 340.494171
[Rear_Toe3_03]
50 433.103577 0.001431 -0.000238 0.006244 68.333405 0.006244 433.103546
51 433.103577 0.001431 -0.000238 0.006358 68.725845 0.006358 433.103546
52 433.103577 0.001431 -0.000238 0.006476 69.118263 0.006476 433.103546
[Back_Bone]
50 1312.175781 -701.934692 0.000954 0.113668 0.003777 -89.678925 1488.125488
51 1312.175781 -701.934692 0.000954 0.166999 0.004614 -89.755707 1488.125488
52 1312.175781 -701.934692 0.000954 0.220328 0.005522 -89.832451 1488.125488
[Head]
50 1406.159424 809.709290 0.001431 0.115329 -1.470027 5.804432 1622.625488
51 1406.159424 809.709290 0.001431 0.109253 -1.469247 5.507388 1622.625488
52 1406.159424 809.709290 0.001431 0.102644 -1.470770 5.631275 1622.625488
[Motor_Bone]
50 1158.364380 -417.834747 0.000477 -0.095385 0.076104 -105.915726 1231.419434
51 1158.364380 -417.834747 0.000477 -0.095385 0.076104 -105.915703 1231.419434
52 1158.364380 -417.834747 0.000477 -0.095385 0.076104 -105.915703 1231.419434
[Ping_Mechanism]
50 1256.811646 -447.844940 2.475554 0.000103 -0.000053 82.120995 1334.221313
51 1253.380615 -446.833862 2.032358 0.000103 -0.000053 82.120995 1330.649414
52 1249.949585 -445.822754 1.589165 0.000103 -0.000053 82.120995 1327.077393
[BN_LookIK]
50 193.241119 1380.371704 -0.002861 0.000000 89.965736 -31.038179 1393.832153
51 193.241119 1380.371704 -0.002861 0.000000 89.965736 -31.038179 1393.832153
52 193.241119 1380.371704 -0.002861 0.000000 89.965736 -31.038179 1393.832153
[bottomMouth]
50 -435.092926 615.759399 -0.000954 -0.000022 0.000016 73.527184 753.966492
51 -435.092926 615.759399 -0.000954 -0.000022 0.000016 73.527184 753.966492
52 -435.092926 615.759399 -0.000954 -0.000022 0.000016 73.527184 753.966492
[L_Mouth01]
50 554.440979 7.658243 838.222046 150.204178 23.759130 109.605339 1005.027161
51 554.440979 7.658243 838.222046 150.204178 23.759130 109.605339 1005.027161
52 554.440979 7.658243 838.222046 150.204178 23.759130 109.605339 1005.027161
[L_mouthFront]
50 551.629089 934.514771 339.150421 0.000081 2.804060 79.119301 1136.941284
51 551.629089 934.514771 339.150421 0.000081 2.804060 79.119301 1136.941284
52 551.629089 934.514771 339.150421 0.000081 2.804060 79.119301 1136.941284
[mouthGun]
50 55.332661 1627.420898 0.000000 0.000023 0.000009 -11.038128 1628.361328
51 55.332661 1627.420898 0.000000 0.000023 0.000009 -11.038128 1628.361328
52 55.332661 1627.420898 0.000000 0.000023 0.000009 -11.038128 1628.361328
[R_Mouth01]
50 554.442383 7.659197 -838.223938 29.795891 -23.759109 109.605331 1005.029541
51 554.442383 7.659197 -838.223938 29.795891 -23.759109 109.605331 1005.029541
52 554.442383 7.659197 -838.223938 29.795891 -23.759109 109.605331 1005.029541
[R_mouthFront]
50 551.629089 934.514282 -339.151367 0.000029 -2.803930 79.119133 1136.941162
51 551.629089 934.514282 -339.151367 0.000029 -2.803930 79.119133 1136.941162
52 551.629089 934.514282 -339.151367 0.000029 -2.803930 79.119133 1136.941162
[TopMouth]
50 461.269867 -56.106091 -0.008583 -0.000059 -0.000268 92.025169 464.669525
51 461.269867 -56.106091 -0.008583 -0.000059 -0.000268 92.025169 464.669525
52 461.269867 -56.106091 -0.008583 -0.000059 -0.000268 92.025169 464.669525
[weapon_bone]
50 -987.239868 1448.372803 0.001431 0.000000 89.965736 -31.038221 1752.833740
51 -987.239868 1448.372803 0.001431 0.000000 89.965736 -31.038221 1752.833740
52 -987.239868 1448.372803 0.001431 0.000000 89.965736 -31.038221 1752.833740
